PathFileType	4	(X/Y/Z)	D:\TRACE\v60_Jaco2_6-2-23\BothDRS_Motion3_5-v60.trc
DataRate	CameraRate	NumFrames	NumMarkers	Units	OrigDataRate	OrigDataStartFrame	OrigNumFrames
100.00	100.00	      31	9	mm	100.00	1	      7000
Frame#	Time	front left toe			Front right toe			aft left toe			aft right toe			Arm			FL body			FR body			AL Body			AR Body			
		X1	Y1	Z1	X2	Y2	Z2	X3	Y3	Z3	X4	Y4	Z4	X5	Y5	Z5	X6	Y6	Z6	X7	Y7	Z7	X8	Y8	Z8	X9	Y9	Z9	

1	0.000	-155.70401	78.05531	-290.18372	282.24210	76.41341	-276.96478	-182.55905	-31.46169	326.85812	204.38959	-35.00780	335.02502	76.15364	1257.46167	-212.11536	0.37924	652.54767	-434.25467	158.75702	650.34180	-422.58084	-61.65522	487.93173	494.18002	90.37589	476.97629	503.03729	
2	0.010	-155.69376	78.07619	-290.16129	282.22284	76.30457	-276.98917	-181.78235	-32.29856	326.97632	204.30933	-34.97911	335.00330	76.19222	1257.47461	-212.12054	0.37538	652.55334	-434.23779	158.72475	650.34161	-422.58124	-61.66090	487.91666	494.18347	89.93630	477.00937	503.02060	
3	0.020	-155.64685	78.04639	-290.19516	282.19043	76.33434	-277.00217	-182.53415	-31.45800	326.88412	204.27650	-35.03503	334.99078	76.18807	1257.47314	-212.09901	0.38224	652.57147	-434.24969	158.69368	650.33722	-422.57269	-61.68639	487.91516	494.20425	89.88255	477.00708	503.00354	
4	0.030	-155.65273	78.07073	-290.22531	282.29190	76.36330	-276.91196	-182.32417	-31.83389	327.14453	204.32321	-34.96683	335.01044	76.15900	1257.51563	-212.12430	0.36510	652.54999	-434.24918	158.71527	650.34210	-422.57098	-61.68510	487.92609	494.15396	89.97838	476.99481	503.01730	
5	0.040	-155.66974	78.03217	-290.18213	282.17957	76.33635	-277.00809	-182.36807	-31.82246	327.12488	204.28885	-34.98048	334.96564	76.22087	1257.48511	-212.11079	0.35436	652.54852	-434.25681	158.68071	650.37000	-422.58798	-61.67590	487.91333	494.19052	89.94756	476.99884	503.01688	
6	0.050	-155.66687	78.04558	-290.17194	282.26907	76.37297	-276.94458	-182.31355	-31.80491	327.14230	204.36839	-34.88342	334.96323	76.19746	1257.48340	-212.12050	0.36235	652.55029	-434.27106	158.73854	650.33990	-422.56097	-61.71614	487.90509	494.21088	89.89791	477.02368	503.00931	
7	0.060	-155.66611	78.02420	-290.17743	282.29745	76.38919	-276.92813	-182.56128	-31.46090	326.87094	204.34958	-34.90381	334.99896	76.19876	1257.46228	-212.11723	0.34278	652.54236	-434.25778	158.70192	650.32214	-422.58078	-61.70929	487.93320	494.18018	89.94596	476.99414	503.02240	
8	0.070	-155.66333	78.05077	-290.18234	282.17130	76.34267	-277.03247	-182.33762	-31.78983	327.14145	204.23842	-34.96094	334.97247	76.20583	1257.50818	-212.09187	0.35152	652.55383	-434.26849	158.69890	650.31036	-422.58612	-61.73643	487.93143	494.15588	89.91254	477.00662	503.02908	
9	0.080	-155.67824	78.05878	-290.18924	282.14236	76.36950	-277.00735	-182.34140	-31.82463	327.09799	204.37094	-34.92889	335.00061	76.17779	1257.50305	-212.12270	0.34673	652.56677	-434.26859	158.72144	650.35339	-422.59085	-61.67784	487.91663	494.18158	89.91763	477.00482	503.00690	
10	0.090	-155.68561	78.04067	-290.18787	282.20013	76.36900	-277.01874	-182.55167	-31.45044	326.84253	204.34462	-34.95060	335.01904	76.14002	1257.50757	-212.11386	0.37422	652.52618	-434.25961	158.65977	650.34753	-422.58267	-61.72338	487.91275	494.16803	89.87374	477.02890	503.00665	
11	0.100	-155.68086	78.04172	-290.17596	282.13348	76.35596	-277.03485	-182.56419	-31.50130	326.88550	204.32443	-35.01051	334.98502	76.16510	1257.48853	-212.12709	0.35774	652.53668	-434.26563	158.65424	650.33502	-422.57831	-61.73182	487.92084	494.17999	89.89973	477.00558	503.00684	
12	0.110	-155.66724	78.04754	-290.19470	282.33310	76.43869	-276.90466	-182.34038	-31.80882	327.11282	204.37723	-34.98423	334.99307	76.11044	1257.49707	-212.12141	0.33971	652.52863	-434.24835	158.71823	650.34985	-422.57101	-61.73455	487.93027	494.14456	90.37060	476.94852	503.01053	
13	0.120	-155.69125	78.03593	-290.17731	282.14325	76.35385	-277.03391	-182.54300	-31.47648	326.86383	204.35921	-34.94721	334.97540	76.15488	1257.48743	-212.13744	0.35604	652.53503	-434.26624	158.71854	650.32281	-422.55673	-61.72152	487.90381	494.14880	89.87968	476.99634	502.97815	
14	0.130	-155.66461	78.03846	-290.17084	282.09421	76.34354	-276.99570	-182.34067	-31.79706	327.13016	204.21642	-35.01873	334.96817	76.14156	1257.48633	-212.13467	0.35227	652.53705	-434.23679	158.70470	650.32898	-422.57675	-61.70509	487.89743	494.15912	89.88730	476.99329	502.98090	
15	0.140	-155.64400	78.03507	-290.17285	282.28867	76.35023	-276.98105	-182.57690	-31.46178	326.85162	204.31705	-34.94775	334.98511	76.10767	1257.48279	-212.12296	0.35776	652.55072	-434.25458	158.73723	650.34961	-422.54868	-61.75681	487.90732	494.15338	89.87276	476.98462	502.98456	
16	0.150	-155.68373	78.04491	-290.18900	282.10562	76.33305	-277.02994	-182.54892	-31.45835	326.88342	204.38634	-34.88145	335.01208	76.11320	1257.49353	-212.12029	0.36596	652.56183	-434.26654	158.71019	650.32111	-422.58069	-61.76832	487.93701	494.17380	89.85294	477.00742	503.00751	
17	0.160	-155.67072	78.04418	-290.18860	282.16367	76.36711	-277.02530	-182.56192	-31.44791	326.85324	204.33569	-34.95181	334.98581	76.12551	1257.48767	-212.13461	0.36683	652.50421	-434.28192	158.67065	650.31677	-422.55478	-61.69962	487.92068	494.16141	89.88931	476.97736	502.99677	
18	0.170	-155.68669	78.04319	-290.19736	282.12408	76.37313	-276.96741	-182.57663	-31.47503	326.87863	204.34071	-34.99125	335.02255	76.12969	1257.46643	-212.12796	0.37408	652.51685	-434.25412	158.73125	650.31989	-422.58368	-61.69707	487.89459	494.18863	89.88038	477.01547	502.97916	
19	0.180	-155.66389	78.02631	-290.19641	282.31058	76.36599	-276.96857	-182.54491	-31.44815	326.85358	204.31926	-34.99866	334.98764	76.18515	1257.46643	-212.12730	0.34624	652.53821	-434.25885	158.78290	650.34052	-422.59555	-61.67669	487.88516	494.18130	89.91885	476.98599	502.99005	
20	0.190	-155.69002	78.07324	-290.18158	282.17883	76.33337	-276.98080	-182.56517	-31.41893	326.83603	204.34320	-34.95868	334.99277	76.15190	1257.48071	-212.11131	0.34078	652.54382	-434.26828	158.70416	650.32056	-422.57474	-61.79572	487.90192	494.17386	89.85789	477.01779	502.98746	
21	0.200	-155.66202	78.03844	-290.16263	282.34625	76.39529	-276.94714	-182.34081	-31.82053	327.14127	204.39651	-34.92773	335.00922	76.15274	1257.48010	-212.13857	0.37305	652.51074	-434.24625	158.75282	650.31519	-422.57733	-61.68377	487.90240	494.17673	90.40443	476.91864	503.02643	
22	0.210	-155.67902	78.06140	-290.21307	282.24142	76.39199	-276.95264	-182.55981	-31.46820	326.86526	204.45407	-34.93715	335.03781	76.13065	1257.47632	-212.13371	0.32192	652.59296	-434.25674	158.74959	650.32556	-422.56766	-61.71913	487.92227	494.16705	90.33259	476.95819	503.01947	
23	0.220	-155.67899	78.01271	-290.16397	282.19083	76.34753	-277.00504	-182.55896	-31.46893	326.86990	204.31514	-34.94545	334.98923	76.19208	1257.46826	-212.12550	0.35881	652.54413	-434.27612	158.74031	650.33734	-422.58972	-61.70979	487.93500	494.16406	89.84853	477.00748	502.97467	
24	0.230	-155.70465	78.06841	-290.16620	282.10419	76.31010	-277.01898	-182.54326	-31.44137	326.86554	204.28632	-34.99173	334.98892	76.14500	1257.47290	-212.12239	0.35791	652.53351	-434.28522	158.76128	650.31927	-422.58533	-61.72762	487.90353	494.18900	89.88712	477.01559	502.98557	
25	0.240	-155.69406	78.04443	-290.15866	282.23685	76.35643	-276.95776	-182.34119	-31.80531	327.13864	204.44702	-34.97405	335.01593	76.18829	1257.43579	-212.11073	0.35984	652.54309	-434.26422	158.64801	650.33014	-422.57449	-61.75895	487.88638	494.20126	89.91359	477.00046	503.01642	
26	0.250	-155.70081	78.05842	-290.19238	282.16739	76.34151	-277.02219	-182.55937	-31.46814	326.88757	204.24190	-35.00433	334.96185	76.08455	1257.46082	-212.14638	0.35903	652.54590	-434.27243	158.74675	650.34924	-422.58200	-61.74211	487.88229	494.17200	89.88449	477.01489	502.99503	
27	0.260	-155.69804	78.05227	-290.18420	282.15851	76.34943	-276.95529	-182.34210	-31.81261	327.11865	204.31798	-34.97070	334.99902	76.13744	1257.47046	-212.11438	0.34976	652.55688	-434.24475	158.67728	650.34906	-422.58334	-61.71928	487.90561	494.18945	89.93647	477.00006	502.99515	
28	0.270	-155.68478	78.05493	-290.16827	282.26990	76.43577	-276.95819	-182.56126	-31.42583	326.85272	204.39563	-34.93897	334.98831	76.12890	1257.48328	-212.12654	0.34262	652.55725	-434.27521	158.65085	650.33038	-422.57748	-61.72854	487.94870	494.16736	90.34418	476.97052	503.00919	
29	0.280	-155.66702	78.08694	-290.18567	282.22543	76.38965	-276.98853	-182.57860	-31.44137	326.84592	204.44287	-34.92136	335.04745	76.12110	1257.46985	-212.15028	0.34602	652.55469	-434.24655	158.71753	650.33447	-422.58701	-61.69188	487.92120	494.16867	89.90965	477.00598	503.00638	
30	0.290	-155.68906	78.06906	-290.15765	282.12881	76.33734	-277.05652	-182.34756	-31.79536	327.13617	204.35228	-34.93201	335.01883	76.14397	1257.50146	-212.12762	0.33763	652.60876	-434.25977	158.64221	650.32770	-422.59341	-61.68308	487.90585	494.17767	89.86813	477.02884	502.98511	
31	0.300	-155.66142	78.05588	-290.18356	282.21518	76.34859	-276.96466	-182.36845	-31.81203	327.13205	204.34808	-34.89188	334.99808	76.17981	1257.49988	-212.10376	0.34574	652.54108	-434.25452	158.67757	650.34711	-422.57938	-61.70066	487.90640	494.17395	89.88524	477.01416	503.00745	
